name Precision Landing16_filtered_grf.mot
datacolumns 37
datarows 12
range 1.141500 1.147000
endheader
time	1_ground_force_vx	1_ground_force_vy	1_ground_force_vz	1_ground_force_px	1_ground_force_py	1_ground_force_pz	1_ground_torque_x	1_ground_torque_y	1_ground_torque_z	2_ground_force_vx	2_ground_force_vy	2_ground_force_vz	2_ground_force_px	2_ground_force_py	2_ground_force_pz	2_ground_torque_x	2_ground_torque_y	2_ground_torque_z	3_ground_force_vx	3_ground_force_vy	3_ground_force_vz	3_ground_force_px	3_ground_force_py	3_ground_force_pz	3_ground_torque_x	3_ground_torque_y	3_ground_torque_z	4_ground_force_vx	4_ground_force_vy	4_ground_force_vz	4_ground_force_px	4_ground_force_py	4_ground_force_pz	4_ground_torque_x	4_ground_torque_y	4_ground_torque_z
            1.141500	          -40.477766	         1079.913069	          376.176976	            0.068898	            0.000000	            0.326472	           -0.685497	           18.288498	            6.370616	           24.187870	          890.701537	          376.636291	           -0.163936	            0.000000	            0.336929	            1.480277	           54.510158	           23.049813	            5.054931	           -0.649536	           -0.730456	            0.353518	            1.255127	            1.891044	           -0.000810	            0.000104	            0.000117	          -18.519626	            0.403686	           -2.402417	           -0.288927	            1.264826	            1.900974	            0.012309	           -0.000268	            0.001597
            1.142000	          -39.117926	         1081.957692	          366.746855	            0.069763	            0.000000	            0.329142	           -0.679413	           18.791788	            6.369777	           21.070261	          888.349807	          367.640641	           -0.162773	            0.000000	            0.338133	            1.269971	           53.543639	           22.158859	            5.078877	           -0.640160	           -0.735810	            0.353512	            1.255126	            1.891046	           -0.001023	            0.000129	            0.000148	          -18.507230	            0.413379	           -2.409131	           -0.288929	            1.264826	            1.900977	            0.012457	           -0.000278	            0.001622
            1.142500	          -37.794063	         1084.125738	          357.616581	            0.070681	            0.000000	            0.331866	           -0.670254	           19.226302	            6.342110	           18.278674	          886.191640	          358.852059	           -0.161678	            0.000000	            0.339360	            1.084522	           52.580090	           21.291640	            5.103682	           -0.630373	           -0.740125	            0.353506	            1.255126	            1.891048	           -0.001221	            0.000151	            0.000177	          -18.495873	            0.425069	           -2.414146	           -0.288931	            1.264826	            1.900979	            0.012608	           -0.000290	            0.001646
            1.143000	          -36.505270	         1086.340400	          348.842555	            0.071635	            0.000000	            0.334608	           -0.658268	           19.589040	            6.290377	           15.823581	          884.188809	          350.354892	           -0.160662	            0.000000	            0.340589	            0.923978	           51.629956	           20.458083	            5.129214	           -0.620303	           -0.743497	            0.353502	            1.255126	            1.891051	           -0.001402	            0.000170	            0.000203	          -18.485664	            0.438691	           -2.417211	           -0.288933	            1.264826	            1.900982	            0.012763	           -0.000303	            0.001669
            1.143500	          -35.250332	         1088.530127	          340.473064	            0.072610	            0.000000	            0.337333	           -0.643764	           19.879426	            6.217935	           13.710728	          882.306123	          342.224899	           -0.159733	            0.000000	            0.341805	            0.787913	           50.703388	           19.666600	            5.155361	           -0.610091	           -0.745842	            0.353497	            1.255127	            1.891053	           -0.001565	            0.000185	            0.000226	          -18.476650	            0.454209	           -2.418486	           -0.288934	            1.264826	            1.900984	            0.012919	           -0.000318	            0.001691
            1.144000	          -34.027943	         1090.628944	          332.548230	            0.073590	            0.000000	            0.340009	           -0.627096	           20.099047	            6.128484	           11.941179	          880.511402	          334.528702	           -0.158899	            0.000000	            0.342990	            0.675506	           49.810021	           18.924095	            5.181992	           -0.599891	           -0.747192	            0.353492	            1.255127	            1.891056	           -0.001711	            0.000198	            0.000247	          -18.468898	            0.471544	           -2.417952	           -0.288935	            1.264826	            1.900987	            0.013078	           -0.000334	            0.001712
            1.144500	          -32.836893	         1092.576718	          325.100070	            0.074559	            0.000000	            0.342607	           -0.608644	           20.251314	            6.025850	           10.511443	          878.775413	          327.323365	           -0.158163	            0.000000	            0.344129	            0.585619	           48.958757	           18.235996	            5.208972	           -0.589870	           -0.747598	            0.353487	            1.255127	            1.891059	           -0.001839	            0.000208	            0.000264	          -18.462460	            0.490596	           -2.415613	           -0.288937	            1.264825	            1.900989	            0.013238	           -0.000352	            0.001732
            1.145000	          -31.676227	         1094.319373	          318.152664	            0.075503	            0.000000	            0.345100	           -0.588794	           20.341088	            5.913787	            9.413666	          877.071792	          320.656092	           -0.157528	            0.000000	            0.345210	            0.516878	           48.157575	           17.606335	            5.236161	           -0.580200	           -0.747129	            0.353482	            1.255127	            1.891061	           -0.001948	            0.000216	            0.000278	          -18.457380	            0.511247	           -2.411496	           -0.288938	            1.264825	            1.900992	            0.013398	           -0.000371	            0.001751
            1.145500	          -30.545361	         1095.809044	          311.722414	            0.076411	            0.000000	            0.347462	           -0.567927	           20.374284	            5.795828	            8.635892	          875.376949	          314.564052	           -0.156994	            0.000000	            0.346221	            0.467749	           47.413359	           17.037847	            5.263401	           -0.571056	           -0.745948	            0.353478	            1.255128	            1.891064	           -0.002040	            0.000221	            0.000289	          -18.453699	            0.533350	           -2.405567	           -0.288938	            1.264824	            1.900994	            0.013557	           -0.000392	            0.001767
            1.146000	          -29.444163	         1097.004181	          305.818378	            0.077269	            0.000000	            0.349674	           -0.546405	           20.357480	            5.675176	            8.162381	          873.669958	          309.074332	           -0.156559	            0.000000	            0.347152	            0.436598	           46.731771	           16.532090	            5.290552	           -0.562618	           -0.744080	            0.353475	            1.255128	            1.891067	           -0.002114	            0.000225	            0.000297	          -18.451427	            0.556764	           -2.397976	           -0.288939	            1.264824	            1.900997	            0.013713	           -0.000414	            0.001782
            1.146500	          -28.372990	         1097.869582	          300.442685	            0.078069	            0.000000	            0.351715	           -0.524563	           20.297549	            5.554622	            7.973973	          871.932435	          304.204013	           -0.156220	            0.000000	            0.347995	            0.421749	           46.117149	           16.089574	            5.317460	           -0.555059	           -0.741642	            0.353471	            1.255128	            1.891071	           -0.002171	            0.000227	            0.000303	          -18.450569	            0.581323	           -2.388814	           -0.288939	            1.264823	            1.901000	            0.013865	           -0.000437	            0.001795
            1.147000	          -27.332692	         1098.376374	          295.591009	            0.078800	            0.000000	            0.353572	           -0.502702	           20.201322	            5.436505	            8.048513	          870.148422	          299.960369	           -0.155974	            0.000000	            0.348744	            0.421526	           45.572459	           15.709885	            5.343964	           -0.548546	           -0.738763	            0.353468	            1.255129	            1.891074	           -0.002212	            0.000227	            0.000306	          -18.451121	            0.606845	           -2.378194	           -0.288940	            1.264823	            1.901002	            0.014009	           -0.000461	            0.001806
